<svg width="160" height="35" viewBox="0 0 160 35" fill="none" xmlns="http://www.w3.org/2000/svg">
<path fill-rule="evenodd" clip-rule="evenodd" d="M159.36 27.054H158.759C158.352 27.054 158.119 26.8409 158.119 26.4138V21.1774C158.119 19.8001 157.847 18.7138 156.394 18.7138C154.57 18.7138 153.484 20.5953 153.484 22.4768V26.4138C153.484 26.8409 153.271 27.054 152.863 27.054H152.243C151.836 27.054 151.622 26.8409 151.622 26.4138V21.1774C151.622 19.8971 151.429 18.7138 149.916 18.7138C148.053 18.7138 146.968 20.6533 146.968 22.4768V26.4138C146.968 26.8409 146.755 27.054 146.328 27.054H145.727C145.32 27.054 145.086 26.8409 145.086 26.4138V17.8806C145.086 17.4535 145.32 17.2404 145.727 17.2404H146.269C146.696 17.2404 146.91 17.4535 146.91 17.8806V18.7528C146.91 19.0439 146.851 19.315 146.851 19.315H146.89C147.375 18.1707 148.752 17.0074 150.303 17.0074C151.952 17.0074 152.902 17.7636 153.251 19.238H153.29C153.813 18.0937 155.171 17.0074 156.761 17.0074C158.992 17.0074 160 18.2677 160 20.7703V26.4138C160 26.8409 159.787 27.054 159.36 27.054ZM137.722 27.287C134.793 27.287 132.447 25.1145 132.447 22.1277C132.447 19.1599 134.793 17.0074 137.722 17.0074C140.65 17.0074 143.016 19.1599 143.016 22.1277C143.016 25.1145 140.65 27.287 137.722 27.287ZM137.722 18.6358C135.879 18.6358 134.347 20.0912 134.347 22.1277C134.347 24.1832 135.879 25.6576 137.722 25.6576C139.583 25.6576 141.096 24.1832 141.096 22.1277C141.096 20.0912 139.583 18.6358 137.722 18.6358ZM127.505 27.287C124.421 27.287 122.268 25.0955 122.268 22.1467C122.268 19.2379 124.44 17.0074 127.505 17.0074C129.153 17.0074 130.22 17.6475 130.743 18.0546C131.073 18.2677 131.093 18.5978 130.86 18.9279L130.665 19.2179C130.433 19.567 130.161 19.587 129.793 19.373C129.386 19.0819 128.629 18.6358 127.601 18.6358C125.624 18.6358 124.188 20.1102 124.188 22.1277C124.188 24.1252 125.624 25.6576 127.64 25.6576C128.823 25.6576 129.676 25.1145 130.142 24.7654C130.492 24.5333 130.782 24.5713 131.015 24.9404L131.17 25.2305C131.364 25.5606 131.306 25.8717 130.995 26.0847C130.452 26.5308 129.269 27.287 127.505 27.287ZM119.71 27.054H118.974C118.547 27.054 118.334 26.8409 118.334 26.4138V25.6576C118.334 25.2305 118.547 25.0174 118.974 25.0174H119.71C120.138 25.0174 120.35 25.2305 120.35 25.6576V26.4138C120.35 26.8409 120.138 27.054 119.71 27.054ZM101.966 35C99.6963 35 97.3506 34.5459 96.1783 34.0538C94.8921 33.5246 94.5516 32.6924 95.0429 31.3681L95.4593 30.2328C95.9516 28.9464 96.7085 28.5673 98.1075 29.0215C99.0532 29.3245 100.076 29.5516 101.589 29.5516C104.047 29.5516 106.166 28.6814 106.166 25.8056V24.8224C106.166 24.5943 106.204 24.1032 106.204 24.1032H106.128C105.069 25.6536 103.669 26.4868 101.361 26.4868C95.3844 26.4868 92.4705 21.6816 92.4705 16.6863C92.4705 11.73 95.3075 7.11383 101.4 7.11383C105.561 7.11383 106.734 9.64848 106.734 9.64848H106.809C106.809 9.64848 106.771 9.49744 106.771 9.27038V9.19436C106.771 8.28613 107.49 7.56795 108.852 7.56795H110.63C111.992 7.56795 112.711 8.28613 112.711 9.64848V25.2755C112.711 32.3893 106.923 35 101.966 35ZM102.534 12.5622C100.227 12.5622 99.0532 14.2267 99.0532 16.4592C99.0532 18.8809 100.189 21.0374 102.799 21.0374C104.502 21.0374 106.317 20.1682 106.317 16.7623C106.317 13.3194 104.502 12.5622 102.534 12.5622ZM87.7781 27.054H85.3945C84.0324 27.054 83.3134 26.3358 83.3134 24.9734V15.627C83.3134 13.8116 82.5944 13.0544 81.1564 13.0544C78.2436 13.0544 76.9194 15.476 76.9194 18.2377V24.9734C76.9194 26.3358 76.2004 27.054 74.8394 27.054H72.4558C71.0937 27.054 70.3747 26.3358 70.3747 24.9734V9.64848C70.3747 8.28613 71.0937 7.56795 72.4558 7.56795H74.5738C75.9358 7.56795 76.6169 8.28613 76.6169 9.64848V9.98957C76.6169 10.1786 76.5789 10.4807 76.5789 10.4807H76.6548C77.5625 8.96831 79.4169 7.11383 82.859 7.11383C86.7945 7.11383 89.8592 8.9293 89.8592 14.4167V24.9734C89.8592 26.3358 89.1402 27.054 87.7781 27.054ZM64.4341 27.054H62.0504C60.6884 27.054 59.9694 26.3358 59.9694 24.9734V9.64848C59.9694 8.28613 60.6884 7.56795 62.0504 7.56795H64.4341C65.7961 7.56795 66.5151 8.28613 66.5151 9.64848V24.9734C66.5151 26.3358 65.7961 27.054 64.4341 27.054ZM64.3582 5.10831H62.1263C60.7643 5.10831 60.0453 4.38913 60.0453 3.02778V2.08154C60.0453 0.719185 60.7643 0 62.1263 0H64.3582C65.7202 0 66.4392 0.719185 66.4392 2.08154V3.02778C66.4392 4.38913 65.7202 5.10831 64.3582 5.10831ZM48.0502 27.5081C44.5321 27.5081 43.0942 25.2755 43.0942 25.2755H43.0183C43.0183 25.2755 43.0942 25.9567 43.0942 26.9409V32.5404C43.0942 33.9027 42.3752 34.6219 41.0131 34.6219H38.6295C37.2684 34.6219 36.5494 33.9027 36.5494 32.5404V9.64848C36.5494 8.28613 37.2684 7.56795 38.6295 7.56795H40.3331C41.6941 7.56795 42.4131 8.28613 42.4131 9.27038V9.68649C42.4131 9.87554 42.3752 10.0656 42.3752 10.0656H42.4511C42.4511 10.0656 44.2296 7.11383 48.3527 7.11383C53.6503 7.11383 57.1303 11.2759 57.1303 17.3305C57.1303 23.498 53.2338 27.5081 48.0502 27.5081ZM46.726 12.6383C44.7588 12.6383 42.9054 14.0756 42.9054 17.4435C42.9054 19.7891 44.1537 22.0977 46.726 22.0977C48.7691 22.0977 50.5476 20.4323 50.5476 17.4435C50.5476 14.5297 48.9958 12.6383 46.726 12.6383ZM26.9749 29.1355C25.3492 33.4866 21.944 35 18.8414 35C17.8198 35 16.8742 34.7729 16.1172 34.5089C14.869 34.0918 14.5664 32.9945 15.0957 31.7842L15.588 30.6869C16.1172 29.5136 16.9121 29.3245 17.707 29.4756C18.0096 29.5516 18.3881 29.6656 18.8414 29.6656C20.0147 29.6656 21.0743 28.7194 21.5276 27.5831L21.9061 26.6759L14.6803 9.98957C14.0372 8.5512 14.6803 7.56795 16.269 7.56795H19.2199C20.4681 7.56795 21.225 8.13509 21.6035 9.27038L23.9112 16.5353C24.2518 17.5955 24.6302 19.562 24.6302 19.562H24.7051C24.7051 19.562 25.0836 17.7086 25.3492 16.6483L27.3164 9.3464C27.6569 8.13509 28.4129 7.56795 29.6621 7.56795H32.4232C33.9371 7.56795 34.6181 8.51419 34.0878 9.95156L26.9749 29.1355ZM10.8207 27.244C7.94477 27.244 2.61031 25.9197 2.61031 20.1302V13.0163H2.04209C0.717963 13.0163 0 12.2972 0 10.9358V9.98957C0 8.62722 0.717963 7.90803 2.08004 7.90803H2.79903V4.38913C2.79903 3.02778 3.51802 2.30859 4.88009 2.30859H7.07501C8.43606 2.30859 9.15505 3.02778 9.15505 4.38913V7.90803H11.1612C12.5223 7.90803 13.2413 8.62722 13.2413 9.98957V10.9358C13.2413 12.2972 12.5223 13.0163 11.1982 13.0163H9.15505V18.9189C9.15505 20.5843 10.2525 21.2275 11.4259 21.3785C12.9387 21.5675 13.5059 22.0217 13.5059 23.459V25.1625C13.5059 26.7139 12.5602 27.244 10.8207 27.244Z" fill="#363C44"/>
</svg>
