<svg width="980" height="620" viewBox="0 0 980 620" fill="none" xmlns="http://www.w3.org/2000/svg">
  <rect width="980" height="620" rx="22" fill="#F8FAFC"/>
  <rect x="92" y="80" width="796" height="460" rx="24" fill="#E2E8F0"/>
  <rect x="126" y="122" width="728" height="316" rx="18" fill="#FFFFFF"/>
  <rect x="156" y="154" width="220" height="18" rx="9" fill="#BAE6FD"/>
  <rect x="156" y="192" width="300" height="14" rx="7" fill="#E2E8F0"/>
  <rect x="156" y="236" width="120" height="160" rx="10" fill="#7DD3FC"/>
  <rect x="292" y="286" width="120" height="110" rx="10" fill="#38BDF8"/>
  <rect x="428" y="258" width="120" height="138" rx="10" fill="#0EA5E9"/>
  <rect x="564" y="214" width="120" height="182" rx="10" fill="#0284C7"/>
  <rect x="700" y="248" width="120" height="148" rx="10" fill="#0369A1"/>
  <rect x="126" y="464" width="280" height="36" rx="10" fill="#BAE6FD"/>
  <rect x="424" y="464" width="430" height="36" rx="10" fill="#E2E8F0"/>
</svg>
