<svg width="980" height="620" viewBox="0 0 980 620" fill="none" xmlns="http://www.w3.org/2000/svg">
  <rect width="980" height="620" rx="22" fill="#F8FAFC"/>
  <rect x="90" y="78" width="800" height="464" rx="26" fill="#E2E8F0"/>
  <rect x="124" y="122" width="732" height="316" rx="18" fill="#111827"/>
  <rect x="154" y="160" width="180" height="14" rx="7" fill="#22C55E"/>
  <rect x="154" y="194" width="260" height="14" rx="7" fill="#38BDF8"/>
  <rect x="154" y="228" width="220" height="14" rx="7" fill="#A78BFA"/>
  <rect x="154" y="262" width="280" height="14" rx="7" fill="#FB7185"/>
  <rect x="154" y="296" width="240" height="14" rx="7" fill="#22D3EE"/>
  <rect x="154" y="330" width="200" height="14" rx="7" fill="#FACC15"/>
  <rect x="516" y="156" width="304" height="248" rx="14" fill="#1F2937"/>
  <rect x="548" y="192" width="240" height="28" rx="10" fill="#334155"/>
  <rect x="548" y="236" width="180" height="14" rx="7" fill="#38BDF8"/>
  <rect x="548" y="264" width="210" height="14" rx="7" fill="#22C55E"/>
  <rect x="124" y="466" width="280" height="36" rx="10" fill="#BFDBFE"/>
  <rect x="422" y="466" width="434" height="36" rx="10" fill="#E2E8F0"/>
</svg>
