<svg width="980" height="620" viewBox="0 0 980 620" fill="none" xmlns="http://www.w3.org/2000/svg">
  <rect width="980" height="620" rx="22" fill="#F8FAFC"/>
  <rect x="90" y="78" width="800" height="464" rx="26" fill="#E2E8F0"/>
  <rect x="124" y="122" width="732" height="316" rx="18" fill="#FFFFFF"/>
  <rect x="152" y="154" width="210" height="18" rx="9" fill="#DDD6FE"/>
  <rect x="152" y="188" width="304" height="14" rx="7" fill="#E2E8F0"/>
  <circle cx="264" cy="306" r="92" fill="#C4B5FD"/>
  <circle cx="264" cy="306" r="58" fill="#8B5CF6"/>
  <circle cx="236" cy="292" r="8" fill="#ffffff"/>
  <circle cx="292" cy="292" r="8" fill="#ffffff"/>
  <rect x="236" y="328" width="56" height="10" rx="5" fill="#ffffff"/>
  <rect x="420" y="226" width="384" height="198" rx="14" fill="#EEF2FF"/>
  <rect x="452" y="262" width="320" height="20" rx="8" fill="#C7D2FE"/>
  <rect x="452" y="298" width="280" height="14" rx="7" fill="#CBD5E1"/>
  <rect x="452" y="328" width="240" height="14" rx="7" fill="#CBD5E1"/>
  <rect x="124" y="466" width="280" height="36" rx="10" fill="#DDD6FE"/>
  <rect x="422" y="466" width="434" height="36" rx="10" fill="#E2E8F0"/>
</svg>
