<svg width="960" height="760" viewBox="0 0 960 760" fill="none" xmlns="http://www.w3.org/2000/svg">
  <rect width="960" height="760" rx="28" fill="#DCFCE7"/>
  <rect x="64" y="72" width="832" height="616" rx="22" fill="#FFFFFF"/>
  <rect x="112" y="126" width="250" height="30" rx="8" fill="#86EFAC"/>
  <rect x="112" y="182" width="736" height="14" rx="7" fill="#E5E7EB"/>
  <rect x="112" y="224" width="120" height="360" rx="14" fill="#BBF7D0"/>
  <rect x="248" y="312" width="120" height="272" rx="14" fill="#86EFAC"/>
  <rect x="384" y="266" width="120" height="318" rx="14" fill="#4ADE80"/>
  <rect x="520" y="204" width="120" height="380" rx="14" fill="#22C55E"/>
  <rect x="656" y="152" width="120" height="432" rx="14" fill="#16A34A"/>
  <path d="M140 546L292 478L428 432L564 332L716 256" stroke="#166534" stroke-width="10" stroke-linecap="round"/>
  <circle cx="716" cy="256" r="16" fill="#166534"/>
  <rect x="112" y="610" width="220" height="30" rx="10" fill="#DCFCE7"/>
  <rect x="348" y="610" width="500" height="30" rx="10" fill="#F0FDF4"/>
</svg>
